<svg width="214" height="68" viewBox="0 0 214 68" fill="none" xmlns="http://www.w3.org/2000/svg">
<path d="M16 5.66666L8 17V56.6667C8 58.1695 8.5619 59.6109 9.5621 60.6736C10.5623 61.7363 11.9188 62.3333 13.3333 62.3333H50.6667C52.0812 62.3333 53.4377 61.7363 54.4379 60.6736C55.4381 59.6109 56 58.1695 56 56.6667V17L48 5.66666H16Z" stroke="#fff" stroke-width="2" stroke-linecap="round" stroke-linejoin="round"/>
<path d="M42.6667 28.3333C42.6667 31.3391 41.5429 34.2218 39.5425 36.3472C37.5421 38.4726 34.829 39.6667 32 39.6667C29.171 39.6667 26.4579 38.4726 24.4575 36.3472C22.4571 34.2218 21.3333 31.3391 21.3333 28.3333" stroke="#fff" stroke-width="2" stroke-linecap="round" stroke-linejoin="round"/>
<path d="M8 17H56" stroke="#fff" stroke-width="2" stroke-linecap="round" stroke-linejoin="round"/>
<path d="M79.52 19.152V29.232C79.52 30.24 79.768 31.016 80.264 31.56C80.76 32.104 81.488 32.376 82.448 32.376C83.408 32.376 84.144 32.104 84.656 31.56C85.168 31.016 85.424 30.24 85.424 29.232V19.152H89.528V29.208C89.528 30.712 89.208 31.984 88.568 33.024C87.928 34.064 87.064 34.848 85.976 35.376C84.904 35.904 83.704 36.168 82.376 36.168C81.048 36.168 79.856 35.912 78.8 35.4C77.76 34.872 76.936 34.088 76.328 33.048C75.72 31.992 75.416 30.712 75.416 29.208V19.152H79.52ZM105.25 24.576C105.25 25.552 105.026 26.448 104.578 27.264C104.13 28.064 103.442 28.712 102.514 29.208C101.586 29.704 100.434 29.952 99.0579 29.952H96.5139V36H92.4099V19.152H99.0579C100.402 19.152 101.538 19.384 102.466 19.848C103.394 20.312 104.09 20.952 104.554 21.768C105.018 22.584 105.25 23.52 105.25 24.576ZM98.7459 26.688C99.5299 26.688 100.114 26.504 100.498 26.136C100.882 25.768 101.074 25.248 101.074 24.576C101.074 23.904 100.882 23.384 100.498 23.016C100.114 22.648 99.5299 22.464 98.7459 22.464H96.5139V26.688H98.7459ZM118.568 36.168C117.336 36.168 116.232 35.968 115.256 35.568C114.28 35.168 113.496 34.576 112.904 33.792C112.328 33.008 112.024 32.064 111.992 30.96H116.36C116.424 31.584 116.64 32.064 117.008 32.4C117.376 32.72 117.856 32.88 118.448 32.88C119.056 32.88 119.536 32.744 119.888 32.472C120.24 32.184 120.416 31.792 120.416 31.296C120.416 30.88 120.272 30.536 119.984 30.264C119.712 29.992 119.368 29.768 118.952 29.592C118.552 29.416 117.976 29.216 117.224 28.992C116.136 28.656 115.248 28.32 114.56 27.984C113.872 27.648 113.28 27.152 112.784 26.496C112.288 25.84 112.04 24.984 112.04 23.928C112.04 22.36 112.608 21.136 113.744 20.256C114.88 19.36 116.36 18.912 118.184 18.912C120.04 18.912 121.536 19.36 122.672 20.256C123.808 21.136 124.416 22.368 124.496 23.952H120.056C120.024 23.408 119.824 22.984 119.456 22.68C119.088 22.36 118.616 22.2 118.04 22.2C117.544 22.2 117.144 22.336 116.84 22.608C116.536 22.864 116.384 23.24 116.384 23.736C116.384 24.28 116.64 24.704 117.152 25.008C117.664 25.312 118.464 25.64 119.552 25.992C120.64 26.36 121.52 26.712 122.192 27.048C122.88 27.384 123.472 27.872 123.968 28.512C124.464 29.152 124.712 29.976 124.712 30.984C124.712 31.944 124.464 32.816 123.968 33.6C123.488 34.384 122.784 35.008 121.856 35.472C120.928 35.936 119.832 36.168 118.568 36.168ZM135.47 22.464C137.006 22.464 138.238 22.976 139.166 24C140.094 25.008 140.558 26.4 140.558 28.176V36H136.478V28.728C136.478 27.832 136.246 27.136 135.782 26.64C135.318 26.144 134.694 25.896 133.91 25.896C133.126 25.896 132.502 26.144 132.038 26.64C131.574 27.136 131.342 27.832 131.342 28.728V36H127.238V18.24H131.342V24.408C131.758 23.816 132.326 23.344 133.046 22.992C133.766 22.64 134.574 22.464 135.47 22.464ZM149.506 36.192C148.194 36.192 147.01 35.912 145.954 35.352C144.914 34.792 144.09 33.992 143.482 32.952C142.89 31.912 142.594 30.696 142.594 29.304C142.594 27.928 142.898 26.72 143.506 25.68C144.114 24.624 144.946 23.816 146.002 23.256C147.058 22.696 148.242 22.416 149.554 22.416C150.866 22.416 152.05 22.696 153.106 23.256C154.162 23.816 154.994 24.624 155.602 25.68C156.21 26.72 156.514 27.928 156.514 29.304C156.514 30.68 156.202 31.896 155.578 32.952C154.97 33.992 154.13 34.792 153.058 35.352C152.002 35.912 150.818 36.192 149.506 36.192ZM149.506 32.64C150.29 32.64 150.954 32.352 151.498 31.776C152.058 31.2 152.338 30.376 152.338 29.304C152.338 28.232 152.066 27.408 151.522 26.832C150.994 26.256 150.338 25.968 149.554 25.968C148.754 25.968 148.09 26.256 147.562 26.832C147.034 27.392 146.77 28.216 146.77 29.304C146.77 30.376 147.026 31.2 147.538 31.776C148.066 32.352 148.722 32.64 149.506 32.64ZM164.787 36.192C163.475 36.192 162.291 35.912 161.235 35.352C160.195 34.792 159.371 33.992 158.763 32.952C158.171 31.912 157.875 30.696 157.875 29.304C157.875 27.928 158.179 26.72 158.787 25.68C159.395 24.624 160.227 23.816 161.283 23.256C162.339 22.696 163.523 22.416 164.835 22.416C166.147 22.416 167.331 22.696 168.387 23.256C169.443 23.816 170.275 24.624 170.883 25.68C171.491 26.72 171.795 27.928 171.795 29.304C171.795 30.68 171.483 31.896 170.859 32.952C170.251 33.992 169.411 34.792 168.339 35.352C167.283 35.912 166.099 36.192 164.787 36.192ZM164.787 32.64C165.571 32.64 166.235 32.352 166.779 31.776C167.339 31.2 167.619 30.376 167.619 29.304C167.619 28.232 167.347 27.408 166.803 26.832C166.275 26.256 165.619 25.968 164.835 25.968C164.035 25.968 163.371 26.256 162.843 26.832C162.315 27.392 162.051 28.216 162.051 29.304C162.051 30.376 162.307 31.2 162.819 31.776C163.347 32.352 164.003 32.64 164.787 32.64ZM178.076 24.504C178.476 23.88 179.028 23.376 179.732 22.992C180.436 22.608 181.26 22.416 182.204 22.416C183.308 22.416 184.308 22.696 185.204 23.256C186.1 23.816 186.804 24.616 187.316 25.656C187.844 26.696 188.108 27.904 188.108 29.28C188.108 30.656 187.844 31.872 187.316 32.928C186.804 33.968 186.1 34.776 185.204 35.352C184.308 35.912 183.308 36.192 182.204 36.192C181.276 36.192 180.452 36 179.732 35.616C179.028 35.232 178.476 34.736 178.076 34.128V42.384H173.972V22.608H178.076V24.504ZM183.932 29.28C183.932 28.256 183.644 27.456 183.068 26.88C182.508 26.288 181.812 25.992 180.98 25.992C180.164 25.992 179.468 26.288 178.892 26.88C178.332 27.472 178.052 28.28 178.052 29.304C178.052 30.328 178.332 31.136 178.892 31.728C179.468 32.32 180.164 32.616 180.98 32.616C181.796 32.616 182.492 32.32 183.068 31.728C183.644 31.12 183.932 30.304 183.932 29.28ZM202.885 29.088C202.885 29.472 202.861 29.872 202.813 30.288H193.525C193.589 31.12 193.853 31.76 194.317 32.208C194.797 32.64 195.381 32.856 196.069 32.856C197.093 32.856 197.805 32.424 198.205 31.56H202.573C202.349 32.44 201.941 33.232 201.349 33.936C200.773 34.64 200.045 35.192 199.165 35.592C198.285 35.992 197.301 36.192 196.213 36.192C194.901 36.192 193.733 35.912 192.709 35.352C191.685 34.792 190.885 33.992 190.309 32.952C189.733 31.912 189.445 30.696 189.445 29.304C189.445 27.912 189.725 26.696 190.285 25.656C190.861 24.616 191.661 23.816 192.685 23.256C193.709 22.696 194.885 22.416 196.213 22.416C197.509 22.416 198.661 22.688 199.669 23.232C200.677 23.776 201.461 24.552 202.021 25.56C202.597 26.568 202.885 27.744 202.885 29.088ZM198.685 28.008C198.685 27.304 198.445 26.744 197.965 26.328C197.485 25.912 196.885 25.704 196.165 25.704C195.477 25.704 194.893 25.904 194.413 26.304C193.949 26.704 193.661 27.272 193.549 28.008H198.685ZM209.155 24.84C209.635 24.104 210.235 23.528 210.955 23.112C211.675 22.68 212.475 22.464 213.355 22.464V26.808H212.227C211.203 26.808 210.435 27.032 209.923 27.48C209.411 27.912 209.155 28.68 209.155 29.784V36H205.051V22.608H209.155V24.84Z" fill="#EC981A"/>
<path d="M75.016 45.524V48.32H78.064V49.22H75.016V52.1H78.424V53H73.924V44.624H78.424V45.524H75.016ZM82.5243 51.992L84.5643 46.424H85.7283L83.1483 53H81.8763L79.2963 46.424H80.4723L82.5243 51.992ZM92.8029 49.46C92.8029 49.668 92.7909 49.888 92.7669 50.12H87.5109C87.5509 50.768 87.7709 51.276 88.1709 51.644C88.5789 52.004 89.0709 52.184 89.6469 52.184C90.1189 52.184 90.5109 52.076 90.8229 51.86C91.1429 51.636 91.3669 51.34 91.4949 50.972H92.6709C92.4949 51.604 92.1429 52.12 91.6149 52.52C91.0869 52.912 90.4309 53.108 89.6469 53.108C89.0229 53.108 88.4629 52.968 87.9669 52.688C87.4789 52.408 87.0949 52.012 86.8149 51.5C86.5349 50.98 86.3949 50.38 86.3949 49.7C86.3949 49.02 86.5309 48.424 86.8029 47.912C87.0749 47.4 87.4549 47.008 87.9429 46.736C88.4389 46.456 89.0069 46.316 89.6469 46.316C90.2709 46.316 90.8229 46.452 91.3029 46.724C91.7829 46.996 92.1509 47.372 92.4069 47.852C92.6709 48.324 92.8029 48.86 92.8029 49.46ZM91.6749 49.232C91.6749 48.816 91.5829 48.46 91.3989 48.164C91.2149 47.86 90.9629 47.632 90.6429 47.48C90.3309 47.32 89.9829 47.24 89.5989 47.24C89.0469 47.24 88.5749 47.416 88.1829 47.768C87.7989 48.12 87.5789 48.608 87.5229 49.232H91.6749ZM95.3363 47.492C95.5283 47.116 95.8003 46.824 96.1523 46.616C96.5123 46.408 96.9483 46.304 97.4603 46.304V47.432H97.1723C95.9483 47.432 95.3363 48.096 95.3363 49.424V53H94.2443V46.424H95.3363V47.492ZM104.385 46.424L100.425 56.096H99.2969L100.593 52.928L97.9409 46.424H99.1529L101.217 51.752L103.257 46.424H104.385ZM106.815 47.324V51.2C106.815 51.52 106.883 51.748 107.019 51.884C107.155 52.012 107.391 52.076 107.727 52.076H108.531V53H107.547C106.939 53 106.483 52.86 106.179 52.58C105.875 52.3 105.723 51.84 105.723 51.2V47.324H104.871V46.424H105.723V44.768H106.815V46.424H108.531V47.324H106.815ZM113.118 46.304C113.614 46.304 114.062 46.412 114.462 46.628C114.862 46.836 115.174 47.152 115.398 47.576C115.63 48 115.746 48.516 115.746 49.124V53H114.666V49.28C114.666 48.624 114.502 48.124 114.174 47.78C113.846 47.428 113.398 47.252 112.83 47.252C112.254 47.252 111.794 47.432 111.45 47.792C111.114 48.152 110.946 48.676 110.946 49.364V53H109.854V44.12H110.946V47.36C111.162 47.024 111.458 46.764 111.834 46.58C112.218 46.396 112.646 46.304 113.118 46.304ZM118.093 45.356C117.885 45.356 117.709 45.284 117.565 45.14C117.421 44.996 117.349 44.82 117.349 44.612C117.349 44.404 117.421 44.228 117.565 44.084C117.709 43.94 117.885 43.868 118.093 43.868C118.293 43.868 118.461 43.94 118.597 44.084C118.741 44.228 118.813 44.404 118.813 44.612C118.813 44.82 118.741 44.996 118.597 45.14C118.461 45.284 118.293 45.356 118.093 45.356ZM118.621 46.424V53H117.529V46.424H118.621ZM123.687 46.304C124.487 46.304 125.135 46.548 125.631 47.036C126.127 47.516 126.375 48.212 126.375 49.124V53H125.295V49.28C125.295 48.624 125.131 48.124 124.803 47.78C124.475 47.428 124.027 47.252 123.459 47.252C122.883 47.252 122.423 47.432 122.079 47.792C121.743 48.152 121.575 48.676 121.575 49.364V53H120.483V46.424H121.575V47.36C121.791 47.024 122.083 46.764 122.451 46.58C122.827 46.396 123.239 46.304 123.687 46.304ZM130.87 46.316C131.438 46.316 131.934 46.44 132.358 46.688C132.79 46.936 133.11 47.248 133.318 47.624V46.424H134.422V53.144C134.422 53.744 134.294 54.276 134.038 54.74C133.782 55.212 133.414 55.58 132.934 55.844C132.462 56.108 131.91 56.24 131.278 56.24C130.414 56.24 129.694 56.036 129.118 55.628C128.542 55.22 128.202 54.664 128.098 53.96H129.178C129.298 54.36 129.546 54.68 129.922 54.92C130.298 55.168 130.75 55.292 131.278 55.292C131.878 55.292 132.366 55.104 132.742 54.728C133.126 54.352 133.318 53.824 133.318 53.144V51.764C133.102 52.148 132.782 52.468 132.358 52.724C131.934 52.98 131.438 53.108 130.87 53.108C130.286 53.108 129.754 52.964 129.274 52.676C128.802 52.388 128.43 51.984 128.158 51.464C127.886 50.944 127.75 50.352 127.75 49.688C127.75 49.016 127.886 48.428 128.158 47.924C128.43 47.412 128.802 47.016 129.274 46.736C129.754 46.456 130.286 46.316 130.87 46.316ZM133.318 49.7C133.318 49.204 133.218 48.772 133.018 48.404C132.818 48.036 132.546 47.756 132.202 47.564C131.866 47.364 131.494 47.264 131.086 47.264C130.678 47.264 130.306 47.36 129.97 47.552C129.634 47.744 129.366 48.024 129.166 48.392C128.966 48.76 128.866 49.192 128.866 49.688C128.866 50.192 128.966 50.632 129.166 51.008C129.366 51.376 129.634 51.66 129.97 51.86C130.306 52.052 130.678 52.148 131.086 52.148C131.494 52.148 131.866 52.052 132.202 51.86C132.546 51.66 132.818 51.376 133.018 51.008C133.218 50.632 133.318 50.196 133.318 49.7ZM139.059 49.688C139.059 49.016 139.195 48.428 139.467 47.924C139.739 47.412 140.111 47.016 140.583 46.736C141.063 46.456 141.599 46.316 142.191 46.316C142.703 46.316 143.179 46.436 143.619 46.676C144.059 46.908 144.395 47.216 144.627 47.6V44.12H145.731V53H144.627V51.764C144.411 52.156 144.091 52.48 143.667 52.736C143.243 52.984 142.747 53.108 142.179 53.108C141.595 53.108 141.063 52.964 140.583 52.676C140.111 52.388 139.739 51.984 139.467 51.464C139.195 50.944 139.059 50.352 139.059 49.688ZM144.627 49.7C144.627 49.204 144.527 48.772 144.327 48.404C144.127 48.036 143.855 47.756 143.511 47.564C143.175 47.364 142.803 47.264 142.395 47.264C141.987 47.264 141.615 47.36 141.279 47.552C140.943 47.744 140.675 48.024 140.475 48.392C140.275 48.76 140.175 49.192 140.175 49.688C140.175 50.192 140.275 50.632 140.475 51.008C140.675 51.376 140.943 51.66 141.279 51.86C141.615 52.052 141.987 52.148 142.395 52.148C142.803 52.148 143.175 52.052 143.511 51.86C143.855 51.66 144.127 51.376 144.327 51.008C144.527 50.632 144.627 50.196 144.627 49.7ZM150.444 53.108C149.828 53.108 149.268 52.968 148.764 52.688C148.268 52.408 147.876 52.012 147.588 51.5C147.308 50.98 147.168 50.38 147.168 49.7C147.168 49.028 147.312 48.436 147.6 47.924C147.896 47.404 148.296 47.008 148.8 46.736C149.304 46.456 149.868 46.316 150.492 46.316C151.116 46.316 151.68 46.456 152.184 46.736C152.688 47.008 153.084 47.4 153.372 47.912C153.668 48.424 153.816 49.02 153.816 49.7C153.816 50.38 153.664 50.98 153.36 51.5C153.064 52.012 152.66 52.408 152.148 52.688C151.636 52.968 151.068 53.108 150.444 53.108ZM150.444 52.148C150.836 52.148 151.204 52.056 151.548 51.872C151.892 51.688 152.168 51.412 152.376 51.044C152.592 50.676 152.7 50.228 152.7 49.7C152.7 49.172 152.596 48.724 152.388 48.356C152.18 47.988 151.908 47.716 151.572 47.54C151.236 47.356 150.872 47.264 150.48 47.264C150.08 47.264 149.712 47.356 149.376 47.54C149.048 47.716 148.784 47.988 148.584 48.356C148.384 48.724 148.284 49.172 148.284 49.7C148.284 50.236 148.38 50.688 148.572 51.056C148.772 51.424 149.036 51.7 149.364 51.884C149.692 52.06 150.052 52.148 150.444 52.148ZM164.115 46.424L160.155 56.096H159.027L160.323 52.928L157.671 46.424H158.883L160.947 51.752L162.987 46.424H164.115ZM168.081 53.108C167.465 53.108 166.905 52.968 166.401 52.688C165.905 52.408 165.513 52.012 165.225 51.5C164.945 50.98 164.805 50.38 164.805 49.7C164.805 49.028 164.949 48.436 165.237 47.924C165.533 47.404 165.933 47.008 166.437 46.736C166.941 46.456 167.505 46.316 168.129 46.316C168.753 46.316 169.317 46.456 169.821 46.736C170.325 47.008 170.721 47.4 171.009 47.912C171.305 48.424 171.453 49.02 171.453 49.7C171.453 50.38 171.301 50.98 170.997 51.5C170.701 52.012 170.297 52.408 169.785 52.688C169.273 52.968 168.705 53.108 168.081 53.108ZM168.081 52.148C168.473 52.148 168.841 52.056 169.185 51.872C169.529 51.688 169.805 51.412 170.013 51.044C170.229 50.676 170.337 50.228 170.337 49.7C170.337 49.172 170.233 48.724 170.025 48.356C169.817 47.988 169.545 47.716 169.209 47.54C168.873 47.356 168.509 47.264 168.117 47.264C167.717 47.264 167.349 47.356 167.013 47.54C166.685 47.716 166.421 47.988 166.221 48.356C166.021 48.724 165.921 49.172 165.921 49.7C165.921 50.236 166.017 50.688 166.209 51.056C166.409 51.424 166.673 51.7 167.001 51.884C167.329 52.06 167.689 52.148 168.081 52.148ZM178.721 46.424V53H177.629V52.028C177.421 52.364 177.129 52.628 176.753 52.82C176.385 53.004 175.977 53.096 175.529 53.096C175.017 53.096 174.557 52.992 174.149 52.784C173.741 52.568 173.417 52.248 173.177 51.824C172.945 51.4 172.829 50.884 172.829 50.276V46.424H173.909V50.132C173.909 50.78 174.073 51.28 174.401 51.632C174.729 51.976 175.177 52.148 175.745 52.148C176.329 52.148 176.789 51.968 177.125 51.608C177.461 51.248 177.629 50.724 177.629 50.036V46.424H178.721ZM186.968 46.304C187.768 46.304 188.416 46.548 188.912 47.036C189.408 47.516 189.656 48.212 189.656 49.124V53H188.576V49.28C188.576 48.624 188.412 48.124 188.084 47.78C187.756 47.428 187.308 47.252 186.74 47.252C186.164 47.252 185.704 47.432 185.36 47.792C185.024 48.152 184.856 48.676 184.856 49.364V53H183.764V46.424H184.856V47.36C185.072 47.024 185.364 46.764 185.732 46.58C186.108 46.396 186.52 46.304 186.968 46.304ZM197.44 49.46C197.44 49.668 197.428 49.888 197.404 50.12H192.148C192.188 50.768 192.408 51.276 192.808 51.644C193.216 52.004 193.708 52.184 194.284 52.184C194.756 52.184 195.148 52.076 195.46 51.86C195.78 51.636 196.004 51.34 196.132 50.972H197.308C197.132 51.604 196.78 52.12 196.252 52.52C195.724 52.912 195.068 53.108 194.284 53.108C193.66 53.108 193.1 52.968 192.604 52.688C192.116 52.408 191.732 52.012 191.452 51.5C191.172 50.98 191.032 50.38 191.032 49.7C191.032 49.02 191.168 48.424 191.44 47.912C191.712 47.4 192.092 47.008 192.58 46.736C193.076 46.456 193.644 46.316 194.284 46.316C194.908 46.316 195.46 46.452 195.94 46.724C196.42 46.996 196.788 47.372 197.044 47.852C197.308 48.324 197.44 48.86 197.44 49.46ZM196.312 49.232C196.312 48.816 196.22 48.46 196.036 48.164C195.852 47.86 195.6 47.632 195.28 47.48C194.968 47.32 194.62 47.24 194.236 47.24C193.684 47.24 193.212 47.416 192.82 47.768C192.436 48.12 192.216 48.608 192.16 49.232H196.312ZM204.881 49.46C204.881 49.668 204.869 49.888 204.845 50.12H199.589C199.629 50.768 199.849 51.276 200.249 51.644C200.657 52.004 201.149 52.184 201.725 52.184C202.197 52.184 202.589 52.076 202.901 51.86C203.221 51.636 203.445 51.34 203.573 50.972H204.749C204.573 51.604 204.221 52.12 203.693 52.52C203.165 52.912 202.509 53.108 201.725 53.108C201.101 53.108 200.541 52.968 200.045 52.688C199.557 52.408 199.173 52.012 198.893 51.5C198.613 50.98 198.473 50.38 198.473 49.7C198.473 49.02 198.609 48.424 198.881 47.912C199.153 47.4 199.533 47.008 200.021 46.736C200.517 46.456 201.085 46.316 201.725 46.316C202.349 46.316 202.901 46.452 203.381 46.724C203.861 46.996 204.229 47.372 204.485 47.852C204.749 48.324 204.881 48.86 204.881 49.46ZM203.753 49.232C203.753 48.816 203.661 48.46 203.477 48.164C203.293 47.86 203.041 47.632 202.721 47.48C202.409 47.32 202.061 47.24 201.677 47.24C201.125 47.24 200.653 47.416 200.261 47.768C199.877 48.12 199.657 48.608 199.601 49.232H203.753ZM205.914 49.688C205.914 49.016 206.05 48.428 206.322 47.924C206.594 47.412 206.966 47.016 207.438 46.736C207.918 46.456 208.454 46.316 209.046 46.316C209.558 46.316 210.034 46.436 210.474 46.676C210.914 46.908 211.25 47.216 211.482 47.6V44.12H212.586V53H211.482V51.764C211.266 52.156 210.946 52.48 210.522 52.736C210.098 52.984 209.602 53.108 209.034 53.108C208.45 53.108 207.918 52.964 207.438 52.676C206.966 52.388 206.594 51.984 206.322 51.464C206.05 50.944 205.914 50.352 205.914 49.688ZM211.482 49.7C211.482 49.204 211.382 48.772 211.182 48.404C210.982 48.036 210.71 47.756 210.366 47.564C210.03 47.364 209.658 47.264 209.25 47.264C208.842 47.264 208.47 47.36 208.134 47.552C207.798 47.744 207.53 48.024 207.33 48.392C207.13 48.76 207.03 49.192 207.03 49.688C207.03 50.192 207.13 50.632 207.33 51.008C207.53 51.376 207.798 51.66 208.134 51.86C208.47 52.052 208.842 52.148 209.25 52.148C209.658 52.148 210.03 52.052 210.366 51.86C210.71 51.66 210.982 51.376 211.182 51.008C211.382 50.632 211.482 50.196 211.482 49.7Z" fill="#fff"/>
</svg>
